<?xml version="1.0" encoding="UTF-8" standalone="no"?>
<!DOCTYPE svg PUBLIC "-//W3C//DTD SVG 20010904//EN"
              "http://www.w3.org/TR/2001/REC-SVG-20010904/DTD/svg10.dtd">

<svg xmlns="http://www.w3.org/2000/svg"
     width="11.3778in" height="11.3778in"
     viewBox="0 0 1024 1024">

  <path id="iris"
   fill="#255792" stroke="none" stroke-width="1"
   d="M 526.00,321.00
      C 539.71,321.07 560.77,325.87 574.00,329.98
        635.58,349.12 683.66,394.70 706.42,455.00
        712.35,470.71 718.80,496.29 719.00,513.00
        719.00,513.00 719.82,528.00 719.82,528.00
        719.82,528.00 719.00,541.00 719.00,541.00
        718.97,555.37 713.87,579.22 709.33,593.00
        687.73,658.60 635.35,708.64 569.00,727.57
        557.51,730.85 536.75,734.94 525.00,735.00
        525.00,735.00 511.00,735.68 511.00,735.68
        511.00,735.68 498.00,735.00 498.00,735.00
        481.81,734.81 459.41,729.47 444.00,724.33
        424.72,717.91 406.53,708.38 390.00,696.57
        307.50,637.61 282.35,526.43 325.32,436.00
        348.83,386.52 395.76,346.28 448.00,330.02
        460.80,326.04 483.79,321.06 497.00,321.00
        501.63,320.98 503.28,321.09 508.00,320.42
        508.00,320.42 526.00,321.00 526.00,321.00 Z" />
  <path id="pupil"
    fill="black" stroke="none" stroke-width="1"
    d="M 554.00,394.34
       C 575.32,401.15 594.81,412.54 610.91,428.17
         658.09,473.98 664.81,550.48 629.31,605.00
         615.33,626.46 596.87,642.39 574.00,653.75
         552.92,664.23 530.38,668.27 507.00,668.00
         495.53,667.86 478.92,664.61 468.00,661.00
         447.53,654.23 427.26,642.45 412.17,626.91
         372.22,585.77 360.31,522.40 384.31,470.00
         399.55,436.72 426.61,410.41 461.00,397.42
         476.40,391.61 485.18,390.68 501.00,388.42
         516.39,386.55 539.22,389.63 554.00,394.34 Z" />
  <path id="sclera"
       fill="white" stroke="none" stroke-width="1"
       d="M 702.00,354.95
          C 702.00,354.95 748.00,373.14 748.00,373.14
            807.26,399.34 861.14,431.23 913.00,470.13
            913.00,470.13 964.00,511.58 964.00,511.58
            964.00,511.58 975.98,522.42 975.98,522.42
            977.49,523.81 979.80,525.71 979.80,527.97
            979.80,530.17 977.44,531.93 975.98,533.28
            975.98,533.28 964.00,544.28 964.00,544.28
            964.00,544.28 913.00,585.87 913.00,585.87
            861.72,624.34 806.61,656.95 748.00,682.86
            729.28,691.13 686.04,708.16 667.00,712.00
            667.00,712.00 688.83,690.00 688.83,690.00
            701.40,676.11 715.14,657.66 723.74,641.00
            741.83,605.96 752.46,569.65 752.00,530.00
            752.00,530.00 751.09,520.00 751.09,520.00
            748.10,476.29 739.43,443.13 716.99,405.00
            709.03,391.47 698.60,377.48 687.91,366.00
            687.91,366.00 666.00,344.00 666.00,344.00
            675.08,345.28 692.93,351.63 702.00,354.95 Z
          M 325.00,702.05
          C 325.00,702.05 277.00,683.30 277.00,683.30
            277.00,683.30 239.00,665.74 239.00,665.74
            193.41,642.38 149.96,615.14 109.00,584.37
            109.00,584.37 60.00,544.28 60.00,544.28
            60.00,544.28 48.02,533.42 48.02,533.42
            46.51,532.05 44.20,530.27 44.20,528.00
            44.20,525.73 46.51,523.95 48.02,522.58
            48.02,522.58 60.00,511.72 60.00,511.72
            60.00,511.72 109.00,471.63 109.00,471.63
            150.47,440.47 194.58,412.46 241.00,389.25
            241.00,389.25 277.00,372.70 277.00,372.70
            277.00,372.70 325.00,353.95 325.00,353.95
            331.78,351.47 348.47,345.59 355.00,345.00
            351.09,350.41 345.67,354.25 341.01,359.00
            341.01,359.00 330.17,371.00 330.17,371.00
            318.35,384.30 308.47,399.48 299.86,415.00
            262.33,482.65 263.01,569.69 298.26,638.00
            306.01,653.02 318.99,672.42 330.17,685.00
            330.17,685.00 341.01,697.00 341.01,697.00
            345.67,701.75 351.09,705.59 355.00,711.00
            348.47,710.41 331.78,704.53 325.00,702.05 Z" />
  <path id="contour"
        fill="black" stroke="black" stroke-width="1"
        d="M 520.00,288.21
           C 550.60,288.00 580.87,291.14 611.00,296.58
             722.09,316.61 822.76,366.16 915.00,430.02
             941.81,448.59 977.23,476.05 1001.00,498.09
             1006.47,503.16 1020.50,514.84 1022.99,521.00
             1024.08,523.69 1024.18,528.11 1023.90,531.00
             1023.31,536.91 1019.98,539.98 1016.00,544.00
             1016.00,544.00 997.00,561.42 997.00,561.42
             970.33,584.45 943.06,606.67 914.00,626.66
             820.64,690.86 717.58,741.68 605.00,760.57
             605.00,760.57 547.00,767.09 547.00,767.09
             547.00,767.09 535.00,768.00 535.00,768.00
             535.00,768.00 496.00,768.00 496.00,768.00
             496.00,768.00 485.00,767.04 485.00,767.04
             447.60,765.41 410.34,759.46 374.00,750.37
             275.14,725.66 183.73,678.98 101.00,620.00
             75.17,601.59 44.09,577.50 21.00,555.98
             11.05,546.70 -2.19,539.29 0.21,524.00
             1.49,515.89 18.47,502.03 25.00,496.28
             49.60,474.64 75.32,454.30 102.00,435.29
             184.00,376.86 276.01,329.97 374.00,305.47
             397.54,299.59 421.86,294.75 446.00,292.16
             446.00,292.16 477.00,289.17 477.00,289.17
             477.00,289.17 490.00,288.21 490.00,288.21
             490.00,288.21 520.00,288.21 520.00,288.21 Z
           M 476.00,323.43
           C 438.39,329.75 401.29,347.62 373.00,373.17
             288.01,449.92 281.51,583.12 358.17,668.00
             376.52,688.31 399.31,704.55 424.00,716.22
             448.26,727.68 477.17,734.73 504.00,735.00
             504.00,735.00 525.00,735.00 525.00,735.00
             543.33,734.78 570.92,727.81 588.00,721.00
             609.49,712.43 630.54,699.90 648.00,684.71
             714.27,627.07 736.83,533.65 705.19,452.00
             682.83,394.30 633.00,348.36 574.00,330.02
             560.21,325.74 538.31,321.02 524.00,320.78
             524.00,320.78 511.00,320.78 511.00,320.78
             511.00,320.78 476.00,323.43 476.00,323.43 Z
           M 665.00,343.00
           C 665.00,343.00 666.00,344.00 666.00,344.00
             666.00,344.00 666.00,343.00 666.00,343.00
             666.00,343.00 665.00,343.00 665.00,343.00 Z
           M 355.00,344.00
           C 355.00,344.00 356.00,345.00 356.00,345.00
             356.00,345.00 356.00,344.00 356.00,344.00
             356.00,344.00 355.00,344.00 355.00,344.00 Z
           M 666.00,345.00
           C 678.85,354.20 698.00,376.82 707.42,390.00
             728.33,419.25 743.30,456.40 748.57,492.00
             748.57,492.00 751.09,519.00 751.09,519.00
             751.09,519.00 752.00,529.00 752.00,529.00
             752.43,566.45 744.28,598.08 728.69,632.00
             720.16,650.58 704.52,672.86 690.83,688.00
             690.83,688.00 667.00,712.00 667.00,712.00
             688.39,707.12 730.38,690.60 751.00,681.30
             809.95,654.72 861.22,624.46 913.00,585.63
             913.00,585.63 964.00,544.00 964.00,544.00
             967.21,541.07 978.80,532.03 978.80,528.00
             978.80,523.98 967.22,514.81 964.00,511.95
             964.00,511.95 913.00,470.37 913.00,470.37
             865.94,435.08 815.48,404.25 762.00,379.69
             737.73,368.55 692.29,349.71 667.00,344.00
             667.00,344.00 666.00,345.00 666.00,345.00 Z
           M 328.00,353.00
           C 328.00,353.00 273.00,374.70 273.00,374.70
             213.20,401.66 162.53,431.73 110.00,471.13
             110.00,471.13 60.00,511.95 60.00,511.95
             56.78,514.81 45.20,523.98 45.20,528.00
             45.20,532.03 56.79,541.07 60.00,544.00
             75.76,558.39 92.92,572.06 110.00,584.87
             161.77,623.70 214.05,654.72 273.00,681.30
             273.00,681.30 328.00,703.00 328.00,703.00
             335.87,705.63 347.06,709.78 355.00,711.00
             355.00,711.00 335.17,691.00 335.17,691.00
             321.99,676.44 309.29,659.49 300.26,642.00
             293.92,629.73 288.01,617.17 283.74,604.00
             263.05,540.08 269.03,469.85 301.86,411.00
             311.21,394.25 322.31,379.21 335.17,365.00
             335.17,365.00 355.00,345.00 355.00,345.00
             347.05,346.12 335.94,350.35 328.00,353.00 Z
           M 355.00,711.00
           C 355.00,711.00 356.00,712.00 356.00,712.00
             356.00,712.00 356.00,711.00 356.00,711.00
             356.00,711.00 355.00,711.00 355.00,711.00 Z" />
  <path id="letter"
       fill="white" stroke="none" stroke-width="1"
       d="M 372.69,631.00
          C 372.69,631.00 387.60,595.00 387.60,595.00
            387.60,595.00 460.20,413.00 460.20,413.00
            460.20,413.00 481.41,359.00 481.41,359.00
            481.41,359.00 487.72,341.99 487.72,341.99
            487.72,341.99 495.00,341.00 495.00,341.00
            495.00,341.00 537.00,341.00 537.00,341.00
            537.00,341.00 551.40,381.00 551.40,381.00
            551.40,381.00 577.00,445.00 577.00,445.00
            577.00,445.00 644.42,613.00 644.42,613.00
            644.42,613.00 661.00,649.00 661.00,649.00
            661.00,649.00 620.00,649.00 620.00,649.00
            617.92,649.00 614.26,649.23 612.56,647.98
            610.67,646.58 610.28,643.16 609.77,641.00
            609.77,641.00 605.98,627.00 605.98,627.00
            605.98,627.00 586.60,575.00 586.60,575.00
            585.14,571.35 581.76,560.90 578.73,559.02
            576.74,557.79 573.30,558.00 571.00,558.00
            571.00,558.00 444.00,558.00 444.00,558.00
            444.00,558.00 435.60,582.00 435.60,582.00
            435.60,582.00 418.42,628.00 418.42,628.00
            418.42,628.00 414.65,642.00 414.65,642.00
            414.65,642.00 412.27,648.01 412.27,648.01
            412.27,648.01 405.00,649.00 405.00,649.00
            405.00,649.00 364.00,649.00 364.00,649.00
            364.00,649.00 372.69,631.00 372.69,631.00 Z
          M 506.33,391.00
          C 506.33,391.00 496.40,418.00 496.40,418.00
            496.40,418.00 475.58,473.00 475.58,473.00
            475.58,473.00 456.00,525.00 456.00,525.00
            456.00,525.00 569.00,525.00 569.00,525.00
            569.00,525.00 531.95,428.00 531.95,428.00
            531.95,428.00 513.00,375.00 513.00,375.00
            513.00,375.00 506.33,391.00 506.33,391.00 Z" />

</svg>
